<?xml version="1.0" encoding="iso-8859-1"?>
<!-- Generator: Adobe Illustrator 17.1.0, SVG Export Plug-In . SVG Version: 6.00 Build 0)  -->
<!DOCTYPE svg PUBLIC "-//W3C//DTD SVG 1.1//EN" "http://www.w3.org/Graphics/SVG/1.1/DTD/svg11.dtd">
<svg version="1.1" id="Capa_1" xmlns="http://www.w3.org/2000/svg" xmlns:xlink="http://www.w3.org/1999/xlink" x="0px" y="0px"
	 viewBox="0 0 297.613 297.613" style="enable-background:new 0 0 297.613 297.613;" xml:space="preserve" width='15' height='15'>
<g fill='#fff'>
	<path d="M211.939,184.773c34.824-34.825,34.824-91.492-0.001-126.32c-16.87-16.87-39.301-26.16-63.159-26.16
		c-23.859,0-46.29,9.29-63.161,26.161c-34.824,34.827-34.824,91.494,0.001,126.319c7.646,7.646,16.442,13.717,25.989,18.09
		c1.376-5.303,2.749-10.596,4.098-15.794c-6.849-3.47-13.188-8.024-18.773-13.61c-28.587-28.586-28.587-75.103-0.001-103.691
		c13.85-13.849,32.263-21.475,51.848-21.475c19.584,0,37.997,7.626,51.846,21.474c28.587,28.59,28.587,75.106,0,103.692
		c-5.587,5.586-11.925,10.141-18.774,13.61c1.35,5.198,2.723,10.491,4.1,15.794C195.495,198.49,204.292,192.42,211.939,184.773z"/>
	<path d="M234.773,35.619C211.803,12.65,181.263,0,148.779,0c-32.484,0-63.025,12.65-85.996,35.62
		c-47.415,47.418-47.415,124.571,0.001,171.988c11.793,11.792,25.585,20.857,40.607,26.894c1.318-5.075,2.681-10.318,4.063-15.641
		c-12.306-5.231-23.616-12.828-33.356-22.567c-41.178-41.178-41.178-108.181,0-149.36C94.045,26.985,120.568,16,148.779,16
		c28.211,0,54.732,10.985,74.68,30.934c19.948,19.948,30.934,46.471,30.934,74.681c0,28.211-10.985,54.732-30.934,74.68
		c-9.739,9.739-21.05,17.336-33.356,22.567c1.383,5.322,2.744,10.566,4.063,15.641c15.022-6.037,28.814-15.102,40.607-26.894
		c22.97-22.97,35.619-53.51,35.619-85.994S257.743,58.59,234.773,35.619z"/>
	<path d="M173.939,156.546c1.324,5.115,2.743,10.592,4.223,16.299c4.466-2.571,8.63-5.733,12.371-9.475
		c11.152-11.153,17.295-25.982,17.295-41.755c0-15.774-6.143-30.602-17.295-41.754c-11.152-11.152-25.981-17.294-41.754-17.294
		c-15.773,0-30.603,6.142-41.754,17.294c-11.153,11.152-17.295,25.98-17.295,41.754c0,15.773,6.142,30.602,17.294,41.754
		c3.741,3.742,7.904,6.905,12.371,9.477c1.479-5.707,2.897-11.184,4.222-16.3c-1.857-1.344-3.626-2.837-5.278-4.49
		c-8.131-8.13-12.608-18.941-12.608-30.44s4.478-22.31,12.608-30.441c8.13-8.13,18.94-12.607,30.44-12.607
		c11.499,0,22.31,4.478,30.44,12.608c8.13,8.13,12.608,18.941,12.608,30.44s-4.479,22.311-12.609,30.441
		C177.565,153.709,175.796,155.202,173.939,156.546z"/>
	<path d="M169.243,142.079c0.258-0.258,0.503-0.523,0.749-0.788c10.521-11.336,10.276-29.114-0.75-40.144
		c-5.466-5.466-12.733-8.476-20.464-8.476c-7.731,0-14.998,3.01-20.467,8.477c-11.025,11.026-11.271,28.807-0.75,40.141
		c0.247,0.266,0.492,0.531,0.751,0.79c3.684,3.684,8.186,6.246,13.096,7.529l-38.963,148.005h92.666l-38.963-148.005
		C161.058,148.324,165.561,145.762,169.243,142.079z"/>
</g>
</svg>
